<svg width="85" height="85" viewBox="0 0 85 85" fill="none" xmlns="http://www.w3.org/2000/svg">
<circle cx="42.5" cy="42.5" r="42" fill="white" stroke="#FDF6B7"/>
<circle cx="42.5" cy="42.5" r="34.5" fill="#FDF6B7"/>
<g clip-path="url(#clip0_208_2)">
<path d="M50.9816 54.6632C50.7469 54.8357 50.6965 55.1658 50.8689 55.4005C51.6216 56.4246 52.0195 57.64 52.0195 58.9152V59.9453H49.6992V58.6445C49.6992 58.1986 49.3364 57.8359 48.8906 57.8359H44.3906C43.9447 57.8359 43.582 58.1986 43.582 58.6445V59.9453H35.28C34.9888 59.9453 34.7527 60.1814 34.7527 60.4726C34.7527 60.7638 34.9888 60.9999 35.28 60.9999H52.1249C52.6483 60.9999 53.0742 60.5741 53.0742 60.0507V58.9152C53.0742 57.4137 52.6054 55.9824 51.7188 54.7759C51.5463 54.5412 51.2161 54.4908 50.9816 54.6632ZM44.6367 59.9453V58.8906H48.6445V59.9453H44.6367Z" fill="#383838"/>
<path d="M53.4258 35.4131V34.8518C53.4258 29.4195 49.0063 25 43.5739 25H40.6623C38.7379 25 36.8665 25.5439 35.2505 26.573C35.0048 26.7295 34.9325 27.0554 35.089 27.3011C35.2454 27.5468 35.5713 27.6191 35.8171 27.4626C37.2634 26.5415 38.9389 26.0547 40.6623 26.0547H43.5739C48.4247 26.0547 52.3711 30.001 52.3711 34.8518V35.3711H51.6478C51.6396 34.8509 51.5886 34.3449 51.4954 33.8609C51.114 31.8818 50.3604 30.4844 49.1238 29.4634C47.5406 28.1562 45.2104 27.5207 42 27.5207C38.7896 27.5207 36.4594 28.1562 34.8763 29.4634C33.6396 30.4844 32.8861 31.8818 32.5047 33.8609C32.4114 34.3449 32.3604 34.851 32.3522 35.3711H31.6289V35.0881C31.6289 32.7297 32.5322 30.4982 34.1723 28.8045C34.3749 28.5953 34.3695 28.2614 34.1604 28.0589C33.9511 27.8562 33.6173 27.8616 33.4147 28.0708C31.583 29.9623 30.5742 32.4545 30.5742 35.0881V35.4131C29.4154 35.6284 28.5352 36.6469 28.5352 37.8672V42.3672C28.5352 43.7436 29.6549 44.8633 31.0312 44.8633H31.207V45.6016C31.207 46.28 31.7591 46.832 32.4375 46.832H35.5231C36.4889 48.1066 37.822 49.0882 39.3633 49.618V50.9031L38.1436 51.9191H37.9219C34.0642 51.9191 30.9258 55.0576 30.9258 58.9152V60.0508C30.9258 60.5742 31.3516 61 31.875 61H32.9843C33.2756 61 33.5117 60.7639 33.5117 60.4727C33.5117 60.1814 33.2756 59.9453 32.9843 59.9453H31.9805V58.9152C31.9805 55.6392 34.6458 52.9738 37.9219 52.9738H38.0995L39.9941 55.0741C40.2935 55.4062 40.826 55.3546 41.0586 54.9775L42 53.4513L42.9414 54.9775C43.1737 55.3542 43.7061 55.4066 44.0059 55.0742L45.9005 52.9738H46.0781C47.2593 52.9738 48.4003 53.3195 49.3775 53.9734C49.6189 54.1348 49.9465 54.0713 50.1091 53.8283C50.271 53.5862 50.2061 53.2587 49.964 53.0968C48.8126 52.3264 47.4689 51.9191 46.0781 51.9191H45.8564L44.6367 50.9031V49.618C46.9965 48.8069 48.8682 46.9365 49.6811 44.5775C49.9274 44.7572 50.2306 44.8633 50.5582 44.8633H52.9688C54.3451 44.8633 55.4648 43.7436 55.4648 42.3672V37.8672C55.4648 36.6469 54.5846 35.6284 53.4258 35.4131ZM33.5404 34.0604C34.063 31.3481 35.4768 28.5754 42 28.5754C48.5232 28.5754 49.937 31.3481 50.4597 34.0604C50.5404 34.4791 50.5849 34.9182 50.593 35.3711H50.5582C49.7356 35.3711 49.0664 36.0403 49.0664 36.8628V40.2464C49.0585 40.246 49.0511 40.2453 49.0445 40.2442C48.8219 39.6745 48.572 36.3939 48.5393 36.0561C48.4699 35.2161 48.0895 34.1268 47.2296 33.5885C46.7921 33.3146 46.0475 33.0745 44.9844 33.4866C43.1715 34.1906 40.8285 34.1906 39.0152 33.4865C37.9523 33.0745 37.2079 33.3146 36.7704 33.5885C35.9105 34.1268 35.53 35.2161 35.4607 36.0557C35.4152 36.5256 35.1767 39.6779 34.9555 40.2442C34.9489 40.2452 34.9415 40.246 34.9335 40.2464V36.8628C34.9335 36.0403 34.2643 35.371 33.4418 35.371H33.4069C33.4151 34.9183 33.4596 34.4791 33.5404 34.0604ZM29.5898 42.3672V37.8672C29.5898 37.0724 30.2364 36.4258 31.0312 36.4258H33.4418C33.6828 36.4258 33.8789 36.6219 33.8789 36.8628V40.6608C33.8788 40.6678 33.8788 40.6749 33.8789 40.6819V43.3715C33.8789 43.6125 33.6828 43.8086 33.4418 43.8086H31.0312C30.2364 43.8086 29.5898 43.162 29.5898 42.3672ZM32.4375 45.7773C32.3406 45.7773 32.2617 45.6985 32.2617 45.6016V44.8633H33.4418C33.7694 44.8633 34.0725 44.7572 34.3189 44.5775C34.4624 44.9937 34.6387 45.3947 34.8449 45.7773H32.4375ZM40.4318 53.9848L39.0932 52.5008L39.9372 51.7977L41.2739 52.6195L40.4318 53.9848ZM43.5682 53.9848L42.726 52.6195L44.0628 51.7977L44.9067 52.5008L43.5682 53.9848ZM43.582 50.8552L42 51.8277L40.418 50.8552V49.9021C40.9283 50.003 41.4556 50.0559 41.9951 50.0559H42.0049C42.5444 50.0559 43.0717 50.003 43.582 49.9021V50.8552ZM42.0049 49.0012H41.9951C39.9987 49.0012 38.1931 48.1684 36.9075 46.832H39.3633V46.8672C39.3633 47.4681 39.8522 47.957 40.4531 47.957H43.5469C44.1478 47.957 44.6367 47.4681 44.6367 46.8672V45.7422C44.6367 45.1412 44.1478 44.6523 43.5469 44.6523H40.4531C39.8522 44.6523 39.3633 45.1412 39.3633 45.7422V45.7773H36.0698C35.3512 44.6718 34.9336 43.3536 34.9336 41.9397V41.301C35.469 41.2939 35.733 41.0021 35.8474 40.8159C36.2254 40.1985 36.3986 37.2823 36.5118 36.143C36.5579 35.5844 36.7999 34.8144 37.3301 34.4825C37.6692 34.2702 38.1079 34.266 38.6338 34.4698C40.6787 35.2639 43.3213 35.2639 45.3659 34.47C45.8921 34.266 46.3309 34.2702 46.6699 34.4825C47.2002 34.8144 47.4421 35.5844 47.4883 36.1433C47.5915 37.1826 47.7729 40.1957 48.153 40.8164C48.267 41.0022 48.5311 41.2937 49.0665 41.301V41.9397C49.0664 45.8334 45.8986 49.0012 42.0049 49.0012ZM40.418 45.7422C40.418 45.7228 40.4337 45.707 40.4531 45.707H43.5469C43.5663 45.707 43.582 45.7228 43.582 45.7422V46.8672C43.582 46.8866 43.5663 46.9023 43.5469 46.9023H40.4531C40.4337 46.9023 40.418 46.8866 40.418 46.8672C40.4329 46.0487 40.4207 45.8851 40.418 45.7422ZM54.4102 42.3672C54.4102 43.162 53.7636 43.8086 52.9688 43.8086H50.5582C50.3172 43.8086 50.1211 43.6125 50.1211 43.3715V40.682C50.1212 40.6749 50.1212 40.6679 50.1211 40.6608V36.8628C50.1211 36.6219 50.3172 36.4258 50.5582 36.4258H52.9688C53.7636 36.4258 54.4102 37.0724 54.4102 37.8672V42.3672Z" fill="#383838"/>
</g>
<defs>
<clipPath id="clip0_208_2">
<rect width="36" height="36" fill="white" transform="translate(24 25)"/>
</clipPath>
</defs>
</svg>
