<svg width="85" height="85" viewBox="0 0 85 85" fill="none" xmlns="http://www.w3.org/2000/svg">
<circle cx="42.5" cy="42.5" r="42" fill="white" stroke="#CAEEB9"/>
<circle cx="42.5" cy="42.5" r="34.5" fill="#CAEEB9"/>
<g clip-path="url(#clip0_217_3)">
<path d="M59.3841 51.0385L57.6308 49.2851C57.6306 49.285 57.6305 49.2849 57.6304 49.2848C57.6303 49.2846 57.6302 49.2846 57.6301 49.2844L54.8911 46.5455C54.891 46.5453 54.8909 46.5453 54.8908 46.5451C54.8906 46.545 54.8905 46.5449 54.8904 46.5448L49.8433 41.4977L57.5228 33.8182C58.0126 33.3284 58.2823 32.6772 58.2823 31.9846C58.2823 31.2919 58.0126 30.6408 57.5228 30.151L54.85 27.4782C54.3602 26.9884 53.709 26.7187 53.0164 26.7187C52.3237 26.7187 51.6726 26.9884 51.1828 27.4782L43.5033 35.1576L38.4529 30.1072L35.7125 27.3668C35.7124 27.3667 35.7124 27.3667 35.7123 27.3666C35.7122 27.3665 35.7121 27.3665 35.7121 27.3664L33.9624 25.6167C33.1426 24.797 31.8088 24.7971 30.9892 25.6167L24.6158 31.9901C24.2187 32.3872 24 32.9152 24 33.4768C24 34.0384 24.2187 34.5664 24.6158 34.9634L34.1566 44.5043L30.4545 48.2065C30.3954 48.2655 30.3474 48.3346 30.3126 48.4105L25.7817 58.287C25.6591 58.5542 25.7158 58.8695 25.9236 59.0773C26.0584 59.2121 26.2383 59.2833 26.421 59.2833C26.5201 59.2833 26.62 59.2624 26.714 59.2193L36.5906 54.6884C36.6664 54.6536 36.7355 54.6055 36.7945 54.5465L40.4967 50.8444L43.5196 53.8673C43.6569 54.0046 43.8368 54.0732 44.0167 54.0732C44.1967 54.0732 44.3766 54.0046 44.5139 53.8673C44.7885 53.5927 44.7885 53.1475 44.5139 52.8728L41.491 49.85L48.8489 42.4921L50.6595 44.3027L49.9873 44.9749C49.7127 45.2494 49.7127 45.6946 49.9873 45.9693C50.1246 46.1066 50.3046 46.1752 50.4845 46.1752C50.6644 46.1752 50.8443 46.1066 50.9817 45.9693L51.6539 45.2971L53.3991 47.0424L51.3905 49.051C51.116 49.3256 51.116 49.7708 51.3905 50.0454C51.5279 50.1827 51.7078 50.2513 51.8877 50.2513C52.0676 50.2513 52.2476 50.1826 52.3849 50.0454L54.3935 48.0367L56.1388 49.782L55.4666 50.4542C55.192 50.7288 55.192 51.174 55.4666 51.4487C55.6039 51.586 55.7839 51.6546 55.9638 51.6546C56.1437 51.6546 56.3237 51.586 56.461 51.4487L57.1332 50.7765L58.3897 52.033C58.5212 52.1645 58.5935 52.3393 58.5935 52.5252C58.5935 52.7111 58.5212 52.886 58.3896 53.0175L52.0164 59.3908C51.7451 59.6622 51.3033 59.6623 51.0319 59.3908L48.4973 56.8562C48.2227 56.5817 47.7776 56.5817 47.5029 56.8562C47.2283 57.1308 47.2283 57.576 47.5029 57.8507L50.0375 60.3852C50.4474 60.7951 50.9857 61 51.5241 61C52.0625 61 52.6009 60.795 53.0108 60.3851L59.3842 54.0117C59.7813 53.6147 60 53.0866 60 52.5251C60 51.9635 59.7813 51.4356 59.3841 51.0385ZM52.1771 28.4725C52.4013 28.2484 52.6993 28.1249 53.0164 28.1249C53.3334 28.1249 53.6314 28.2484 53.8556 28.4725L56.5285 31.1454C56.9913 31.6081 56.9913 32.3611 56.5285 32.8238L54.4757 34.8766L50.1244 30.5253L52.1771 28.4725ZM25.6101 33.969C25.4786 33.8375 25.4062 33.6627 25.4062 33.4768C25.4062 33.2909 25.4786 33.116 25.6102 32.9846L31.9835 26.6112C32.2548 26.3398 32.6967 26.3397 32.9681 26.6112L34.2205 27.8636L33.5483 28.5358C33.2737 28.8104 33.2737 29.2556 33.5483 29.5302C33.6856 29.6675 33.8655 29.7361 34.0455 29.7361C34.2254 29.7361 34.4053 29.6674 34.5426 29.5302L35.2149 28.858L36.9612 30.6043L34.9526 32.613C34.678 32.8875 34.678 33.3327 34.9526 33.6073C35.0899 33.7446 35.2698 33.8133 35.4497 33.8133C35.6297 33.8133 35.8096 33.7446 35.9469 33.6073L37.9555 31.5987L39.7008 33.344L39.0286 34.0162C38.754 34.2907 38.754 34.736 39.0286 35.0106C39.1659 35.1479 39.3458 35.2165 39.5257 35.2165C39.7057 35.2165 39.8856 35.1479 40.0229 35.0106L40.6951 34.3384L42.5087 36.152L35.151 43.51L25.6101 33.969ZM27.85 57.1509L28.8129 55.052L29.9489 56.1881L27.85 57.1509ZM31.3123 55.5626L29.4383 53.6887L31.1693 49.9156L35.0853 53.8317L31.3123 55.5626ZM36.2973 53.0549L31.9461 48.7037L49.13 31.5197L51.4672 33.8568L45.6722 39.6519C45.3976 39.9265 45.3976 40.3717 45.6722 40.6463C45.8095 40.7836 45.9894 40.8522 46.1693 40.8522C46.3493 40.8522 46.5292 40.7835 46.6665 40.6463L52.4615 34.8513L53.4812 35.871L36.2973 53.0549Z" fill="#383838"/>
<path d="M46.6665 55.0242C46.5358 54.8934 46.3544 54.8188 46.1694 54.8188C45.9838 54.8188 45.8031 54.8934 45.6723 55.0242C45.5416 55.1556 45.4663 55.3363 45.4663 55.522C45.4663 55.7069 45.5415 55.8883 45.6723 56.0191C45.8031 56.1499 45.9845 56.2251 46.1694 56.2251C46.3544 56.2251 46.5358 56.1499 46.6665 56.0191C46.7973 55.8883 46.8726 55.7069 46.8726 55.522C46.8726 55.3363 46.7973 55.1556 46.6665 55.0242Z" fill="#383838"/>
<path d="M44.7864 41.531C44.6556 41.4002 44.4742 41.325 44.2893 41.325C44.1037 41.325 43.923 41.4002 43.7923 41.531C43.6608 41.6617 43.5862 41.8432 43.5862 42.0281C43.5862 42.213 43.6608 42.3944 43.7923 42.5252C43.923 42.656 44.1037 42.7312 44.2893 42.7312C44.4742 42.7312 44.6556 42.656 44.7864 42.5252C44.9172 42.3944 44.9924 42.213 44.9924 42.0281C44.9924 41.8432 44.9173 41.6617 44.7864 41.531Z" fill="#383838"/>
</g>
<defs>
<clipPath id="clip0_217_3">
<rect width="36" height="36" fill="white" transform="translate(24 25)"/>
</clipPath>
</defs>
</svg>
