<svg width="85" height="85" viewBox="0 0 85 85" fill="none" xmlns="http://www.w3.org/2000/svg">
<circle cx="42.5" cy="42.5" r="42" fill="white" stroke="#FDF6B7"/>
<circle cx="42.5" cy="42.5" r="34.5" fill="#FDF6B7"/>
<g clip-path="url(#clip0_217_4)">
<path d="M59.9338 33.5368C59.8099 33.076 59.5076 32.6832 59.094 32.4451C58.6801 32.2057 58.188 32.141 57.7264 32.2649C57.2653 32.3891 56.8725 32.6911 56.6344 33.1047L56.3344 33.6267C56.0494 33.463 55.6853 33.5593 55.5187 33.8429L53.9949 36.4402L53.4729 36.1402C53.3347 36.0603 53.17 36.0386 53.016 36.0802C52.8616 36.1221 52.7304 36.2234 52.651 36.3623C52.4884 36.649 52.5874 37.0134 52.873 37.178L53.395 37.478L48.2959 46.3145L47.036 49.6801L46.4361 50.8017C46.0849 51.4127 46.1224 52.1723 46.5322 52.7455L45.1824 54.4011L44.8046 53.4535C44.6341 53.0311 44.2395 52.7417 43.7858 52.7063C43.3318 52.6705 42.8968 52.8949 42.6628 53.2854L42.4469 53.6512L42.243 51.2516C42.1961 50.6839 41.7565 50.2276 41.1911 50.159C40.6255 50.0908 40.09 50.4297 39.9093 50.9698L38.4336 55.397C38.3305 55.7101 38.4992 56.0476 38.8115 56.153C38.87 56.1803 38.933 56.1967 38.9975 56.2008C39.2552 56.2017 39.4849 56.0373 39.5675 55.793L41.0371 51.3659L41.2471 53.8012C41.2904 54.3208 41.6639 54.7529 42.1718 54.8706C42.6797 54.9884 43.2052 54.7646 43.4727 54.3173L43.6947 53.9512L44.0667 54.8932C44.2246 55.2901 44.5817 55.5733 45.0043 55.6363C45.427 55.6993 45.8512 55.5326 46.1183 55.199L47.5161 53.4295C47.6708 53.4699 47.8301 53.4901 47.9901 53.4895C48.633 53.4945 49.23 53.1559 49.5557 52.6014L50.1556 51.5996L52.4413 48.8222L57.5943 39.8776L58.1163 40.1775C58.2554 40.2572 58.3568 40.3887 58.3981 40.5437C58.4396 40.6975 58.418 40.8615 58.3383 40.9995L55.9387 45.1569C55.8482 45.2934 55.8174 45.4609 55.8538 45.6208C55.8901 45.7805 55.99 45.9185 56.1306 46.0025C56.2688 46.0828 56.4335 46.1045 56.5875 46.0629C56.7419 46.021 56.8731 45.9196 56.9525 45.7808L59.3521 41.6234C59.5914 41.2095 59.6561 40.7174 59.5319 40.2557C59.4077 39.7947 59.1057 39.4019 58.6921 39.1637L58.1702 38.8638L59.6699 36.2662C59.8337 35.9812 59.7373 35.6174 59.454 35.4504L59.754 34.9284C59.9997 34.5081 60.0648 34.006 59.9338 33.5368ZM57.6722 33.7046C57.7516 33.5658 57.8834 33.4641 58.0384 33.4228C58.1924 33.3847 58.3553 33.4061 58.4941 33.4829C58.6333 33.5623 58.7346 33.6941 58.7762 33.8487C58.8143 34.0028 58.7929 34.1657 58.7162 34.3045L58.4162 34.8265L57.3723 34.2266L57.6722 33.7046ZM49.4957 50.454L49.1957 50.28L48.3079 49.7639L49.1597 47.4844L51.0493 48.5761L49.4957 50.454ZM47.696 52.1875C47.4426 52.0109 47.3647 51.6711 47.5161 51.4016L47.8161 50.8799L48.8597 51.4798L48.5598 51.9956C48.4757 52.1415 48.3345 52.2452 48.1702 52.2818C48.0059 52.3181 47.8339 52.2842 47.696 52.1875ZM51.7333 47.5925L49.6577 46.3927L54.4568 38.0779L56.5325 39.2777L51.7333 47.5925ZM57.1324 38.2399L55.0567 37.0401L56.2565 34.9645L58.3321 36.1643L57.1324 38.2399Z" fill="#383838"/>
<path d="M33.4663 51.8874L31.3429 54.0052L30.0711 52.7334C29.837 52.5008 29.4592 52.5008 29.2251 52.7334C29.1115 52.8461 29.0476 52.9993 29.0476 53.1593C29.0476 53.3192 29.1115 53.4727 29.2251 53.5852L30.497 54.857C30.7219 55.0802 31.026 55.2053 31.3429 55.205C31.6616 55.2068 31.9683 55.0817 32.1947 54.857L34.3122 52.7334C34.5161 52.4952 34.5023 52.1405 34.2809 51.919C34.0592 51.6973 33.7044 51.6835 33.4663 51.8874Z" fill="#383838"/>
<path d="M26.3996 53.5011C26.3996 56.3175 28.6826 58.6002 31.4987 58.6002C34.3148 58.6002 36.5979 56.3175 36.5979 53.5011C36.5979 53.1698 36.3293 52.9012 35.998 52.9012C35.6667 52.9012 35.3981 53.1698 35.3981 53.5011C35.3981 55.6546 33.6523 57.4004 31.4987 57.4004C29.3452 57.4004 27.5994 55.6546 27.5994 53.5011C27.5994 51.3475 29.3452 49.6017 31.4987 49.6017C32.3429 49.5994 33.1646 49.8733 33.8383 50.3818C34.1034 50.5807 34.4795 50.5268 34.6781 50.2617C34.877 49.9966 34.8234 49.6208 34.5583 49.4219C33.0131 48.2631 30.9457 48.0768 29.2184 48.9403C27.4907 49.8041 26.3996 51.5699 26.3996 53.5011Z" fill="#383838"/>
<path d="M45.5963 29.8053C45.9276 29.8053 46.1962 29.537 46.1962 29.2054C46.1962 28.8741 45.9276 28.6055 45.5963 28.6055H29.999C29.6677 28.6055 29.3991 28.8741 29.3991 29.2054V31.605C29.3991 31.9365 29.6677 32.2049 29.999 32.2049H45.5963C45.9276 32.2049 46.1962 31.9365 46.1962 31.605C46.1962 31.2737 45.9276 31.0051 45.5963 31.0051H30.5989V29.8053H45.5963Z" fill="#383838"/>
<path d="M31.7987 33.4045C31.4674 33.4045 31.1988 33.6731 31.1988 34.0044C31.1988 34.336 31.4674 34.6043 31.7987 34.6043H43.7966C44.1279 34.6043 44.3965 34.336 44.3965 34.0044C44.3965 33.6731 44.1279 33.4045 43.7966 33.4045H31.7987Z" fill="#383838"/>
<path d="M47.396 37.6038H34.1983C33.867 37.6038 33.5984 37.8724 33.5984 38.2037C33.5984 38.5352 33.867 38.8036 34.1983 38.8036H47.396C47.7273 38.8036 47.9959 38.5352 47.9959 38.2037C47.9959 37.8724 47.7273 37.6038 47.396 37.6038Z" fill="#383838"/>
<path d="M41.397 41.8033C41.397 41.472 41.1284 41.2034 40.7971 41.2034H28.7992C28.4679 41.2034 28.1993 41.472 28.1993 41.8033C28.1993 42.1349 28.4679 42.4032 28.7992 42.4032H40.7971C41.1284 42.4032 41.397 42.1349 41.397 41.8033Z" fill="#383838"/>
<path d="M47.396 41.2034H43.1967C42.8654 41.2034 42.5968 41.472 42.5968 41.8033C42.5968 42.1349 42.8654 42.4032 43.1967 42.4032H47.396C47.7273 42.4032 47.9959 42.1349 47.9959 41.8033C47.9959 41.472 47.7273 41.2034 47.396 41.2034Z" fill="#383838"/>
<path d="M34.7982 45.4027C35.1294 45.4027 35.3981 45.1344 35.3981 44.8028C35.3981 44.4715 35.1294 44.2029 34.7982 44.2029H28.7992C28.4679 44.2029 28.1993 44.4715 28.1993 44.8028C28.1993 45.1344 28.4679 45.4027 28.7992 45.4027H34.7982Z" fill="#383838"/>
<path d="M37.1977 45.4027H41.397C41.7283 45.4027 41.9969 45.1344 41.9969 44.8028C41.9969 44.4715 41.7283 44.2029 41.397 44.2029H37.1977C36.8664 44.2029 36.5978 44.4715 36.5978 44.8028C36.5978 45.1344 36.8664 45.4027 37.1977 45.4027Z" fill="#383838"/>
<path d="M50.9954 52.6019C50.6641 52.6019 50.3955 52.8705 50.3955 53.2018V59.2008C50.3955 59.5323 50.1269 59.8007 49.7956 59.8007H25.7997C25.4684 59.8007 25.1998 59.5323 25.1998 59.2008V26.8063C25.1998 26.475 25.4684 26.2064 25.7997 26.2064H49.7956C50.1269 26.2064 50.3955 26.475 50.3955 26.8063V38.0725C50.3955 38.4038 50.6641 38.6724 50.9954 38.6724C51.3267 38.6724 51.5953 38.4038 51.5953 38.0725V26.8063C51.5953 25.8124 50.7895 25.0066 49.7956 25.0066H25.7997C24.8058 25.0066 24 25.8124 24 26.8063V59.2008C24 60.1949 24.8058 61.0005 25.7997 61.0005H49.7956C50.7895 61.0005 51.5953 60.1949 51.5953 59.2008V53.2018C51.5953 52.8705 51.3267 52.6019 50.9954 52.6019Z" fill="#383838"/>
</g>
<defs>
<clipPath id="clip0_217_4">
<rect width="36" height="36" fill="white" transform="translate(24 25)"/>
</clipPath>
</defs>
</svg>
