<svg width="85" height="85" viewBox="0 0 85 85" fill="none" xmlns="http://www.w3.org/2000/svg">
<circle cx="42.5" cy="42.5" r="42" fill="white" stroke="#CAEEB9"/>
<circle cx="42.5" cy="42.5" r="34.5" fill="#CAEEB9"/>
<g clip-path="url(#clip0_217_5)">
<path d="M57.7706 36.1626C58.1213 35.6608 58.3281 35.051 58.3281 34.3938V33.477C58.5976 33.3784 58.7904 33.1205 58.7904 32.817V32.5991C58.7904 30.6384 57.1952 29.0432 55.2344 29.0432C53.2736 29.0432 51.6784 30.6384 51.6784 32.5991V32.817C51.6784 33.1205 51.8712 33.3784 52.1406 33.477V34.3938C52.1406 35.051 52.3472 35.6608 52.6982 36.1626C50.936 36.5235 49.5888 38.0349 49.477 39.8748H45.3906C45.0023 39.8748 44.6875 40.1896 44.6875 40.578V44.9373H41.8352V40.578C41.8352 40.1896 41.5201 39.8748 41.132 39.8748H36.0695C35.6812 39.8748 35.3664 40.1896 35.3664 40.578V44.9373H32.8352V35.5561L37.7362 30.6551L41.0074 33.926C41.268 34.1869 41.5795 34.3671 41.9102 34.4671V35.6544L40.4405 37.1241C40.3086 37.256 40.2345 37.4348 40.2345 37.6213V38.9199C40.2345 39.308 40.5495 39.623 40.9376 39.623C41.326 39.623 41.6407 39.308 41.6407 38.9199V37.9127L42.6133 36.9401L43.5858 37.9127V38.8144C43.5858 39.2028 43.9009 39.5175 44.289 39.5175C44.6773 39.5175 44.9921 39.2028 44.9921 38.8144V37.6213C44.9921 37.4348 44.9179 37.256 44.7861 37.1241L43.3164 35.6544V34.4174C43.5933 34.3119 43.8528 34.1485 44.0756 33.926C44.4854 33.5162 44.7111 32.9713 44.7111 32.3918C44.7111 31.8123 44.4854 31.2676 44.0756 30.8578L38.9727 25.7547C38.9713 25.7536 38.9699 25.7525 38.9688 25.7514C37.9595 24.7483 36.3222 24.7502 35.3151 25.7569L29.0894 31.9825C27.6436 32.2646 26.5485 33.5401 26.5485 35.0675V38.7089C26.5485 39.097 26.8636 39.412 27.2516 39.412C27.64 39.412 27.9548 39.097 27.9548 38.7089V37.6853C28.4527 38.0171 29.0501 38.2107 29.6917 38.2107C30.3336 38.2107 30.931 38.0171 31.4289 37.6853V45.1887C31.3957 45.2027 31.3633 45.2178 31.3306 45.2329C30.8068 45.0376 30.2564 44.9373 29.6917 44.9373C29.0781 44.9373 28.4923 45.0568 27.9548 45.2719V43.9118C27.9548 43.5237 27.64 43.2086 27.2516 43.2086C26.8633 43.2086 26.5485 43.5237 26.5485 43.9118V46.1489C25.5982 47.0083 25 48.25 25 49.6291V60.2949C25 60.6829 25.3148 60.998 25.7031 60.998H57.7656C58.1537 60.998 58.4688 60.6829 58.4688 60.2949V48.5661C59.8805 48.4703 61 47.2917 61 45.8558V40.122C61 38.1717 59.6113 36.5394 57.7706 36.1626ZM55.1965 36.0804C54.2835 36.0601 53.5469 35.3117 53.5469 34.3938V33.5201H56.9219V34.3938C56.9219 35.3117 56.1852 36.0601 55.2723 36.0804H55.1965ZM57.3289 32.1138H55.9375V30.5678C56.6291 30.8081 57.1617 31.3918 57.3289 32.1138ZM54.5312 30.5678V32.1138H53.1398C53.3071 31.3918 53.8397 30.8081 54.5312 30.5678ZM54.0391 46.3436C55.0083 46.3436 55.7969 47.1321 55.7969 48.1014C55.7969 49.0707 55.0083 49.8592 54.0391 49.8592H32.6641C31.6948 49.8592 30.9062 49.0707 30.9062 48.1014C30.9062 47.1321 31.6948 46.3436 32.6641 46.3436H54.0391ZM53.4062 51.2655H54.0391C54.2066 51.2655 54.3708 51.252 54.5312 51.227V59.5917H53.4062V51.2655ZM29.5374 48.5867C29.6373 49.2349 29.9356 49.8183 30.3671 50.274C30.1875 50.4437 29.9477 50.542 29.6917 50.542C29.149 50.542 28.7073 50.1006 28.7073 49.5576C28.7073 49.0677 29.0677 48.6612 29.5374 48.5867ZM46.0938 41.2811H49.75V44.9373H46.0938V41.2811ZM36.7727 41.2811H40.4289V44.9373H36.7727V41.2811ZM35.3252 29.4043C35.6213 29.7001 35.9764 29.9149 36.3643 30.0382L32.5784 33.8241C32.2548 33.0762 31.6495 32.478 30.8964 32.1644L34.6938 28.3672C34.8146 28.7465 35.0247 29.1036 35.3252 29.4043ZM43.3049 32.3918C43.3049 32.5956 43.2252 32.7873 43.081 32.9315C42.7836 33.2292 42.2991 33.2292 42.0016 32.9315L38.7304 29.6606L38.9749 29.4164C39.2701 29.1209 39.4846 28.7663 39.6088 28.3796L43.081 31.8521C43.2252 31.9963 43.3049 32.188 43.3049 32.3918ZM37.9803 26.7514C38.2036 26.9744 38.3264 27.2711 38.3264 27.5866C38.3264 27.8742 38.2234 28.1453 38.0367 28.3601C38.0177 28.3755 37.999 28.3919 37.9812 28.4098C37.523 28.8679 36.7776 28.8679 36.3195 28.4098C35.8616 27.9517 35.8616 27.2065 36.3195 26.7484C36.3302 26.7377 36.3398 26.7264 36.3497 26.7151C36.8128 26.2924 37.5327 26.3034 37.9803 26.7514ZM29.6917 36.8044C28.734 36.8044 27.9548 36.0252 27.9548 35.0675C27.9548 34.1095 28.734 33.3303 29.6917 33.3303C30.6497 33.3303 31.4289 34.1095 31.4289 35.0675C31.4289 36.0252 30.6497 36.8044 29.6917 36.8044ZM26.4062 49.6291C26.4062 47.8174 27.8801 46.3436 29.6917 46.3436C29.8035 46.3436 29.9142 46.3494 30.0238 46.3603C29.8601 46.6078 29.7299 46.8792 29.6406 47.1684C28.3459 47.1959 27.3011 48.2566 27.3011 49.5576C27.3011 50.876 28.3736 51.9483 29.6917 51.9483C30.424 51.9483 31.1013 51.6176 31.5498 51.0622C31.8967 51.1932 32.2721 51.2655 32.6641 51.2655H32.9774V59.5915H26.4062V49.6291ZM52 59.5917H34.3837V54.6405H42.6133C43.0016 54.6405 43.3164 54.3254 43.3164 53.9373C43.3164 53.549 43.0016 53.2342 42.6133 53.2342H34.3837V51.2655H52V59.5917ZM55.9375 59.5917V50.631C56.464 50.2347 56.8634 49.6785 57.0625 49.035V59.5917H55.9375ZM59.5938 45.8558C59.5938 46.5155 59.1035 47.0616 58.4688 47.1525V41.1743C58.4688 40.7859 58.154 40.4711 57.7656 40.4711C57.3773 40.4711 57.0625 40.7859 57.0625 41.1743V45.5394V45.5408V47.1678C56.6631 45.8775 55.4588 44.9373 54.0391 44.9373H53.4062V41.1743C53.4062 40.7859 53.0915 40.4711 52.7031 40.4711C52.3148 40.4711 52 40.7859 52 41.1743V44.9373H51.1562V40.578C51.1562 40.3495 51.0467 40.1468 50.8777 40.0185C50.9324 38.6131 52.092 37.4867 53.5106 37.4867H55.1965C55.2091 37.4867 55.2217 37.4875 55.2344 37.4875C55.2473 37.4875 55.2596 37.487 55.2723 37.4867H56.9584C58.4116 37.4867 59.5938 38.6688 59.5938 40.122V45.8558Z" fill="#383838"/>
<path d="M27.2513 42.2241C27.4362 42.2241 27.6177 42.1489 27.7485 42.0179C27.88 41.8871 27.9545 41.7058 27.9545 41.521C27.9545 41.3359 27.88 41.1546 27.7485 41.0239C27.6177 40.8929 27.437 40.8179 27.2513 40.8179C27.0665 40.8179 26.8849 40.8929 26.7542 41.0239C26.6235 41.1546 26.5482 41.3359 26.5482 41.521C26.5482 41.7058 26.6235 41.8871 26.7542 42.0179C26.8849 42.1489 27.0665 42.2241 27.2513 42.2241Z" fill="#383838"/>
<path d="M29.692 34.3635C29.5063 34.3635 29.3256 34.4388 29.1949 34.5695C29.0641 34.7005 28.9889 34.8818 28.9889 35.0667C28.9889 35.2523 29.0641 35.433 29.1949 35.5638C29.3256 35.6945 29.5063 35.7698 29.692 35.7698C29.8769 35.7698 30.0581 35.6945 30.1891 35.5638C30.3199 35.433 30.3951 35.2518 30.3951 35.0667C30.3951 34.8818 30.3199 34.7005 30.1891 34.5695C30.0581 34.4388 29.8769 34.3635 29.692 34.3635Z" fill="#383838"/>
<path d="M36.6529 28.0755C36.7842 28.2062 36.9649 28.2815 37.15 28.2815C37.3354 28.2815 37.5161 28.2062 37.6477 28.0755C37.7784 27.9448 37.8537 27.7635 37.8537 27.5784C37.8537 27.3935 37.7784 27.2122 37.6477 27.0812C37.5161 26.9508 37.3354 26.8752 37.15 26.8752C36.9649 26.8752 36.7842 26.9505 36.6529 27.0812C36.5222 27.2122 36.4474 27.3935 36.4474 27.5784C36.4474 27.7635 36.5222 27.9448 36.6529 28.0755Z" fill="#383838"/>
<path d="M39.2031 47.3975C39.0183 47.3975 38.8367 47.4727 38.706 47.6035C38.5753 47.7345 38.5 47.9157 38.5 48.1006C38.5 48.2854 38.5753 48.467 38.706 48.5977C38.8367 48.729 39.0183 48.8037 39.2031 48.8037C39.388 48.8037 39.5695 48.729 39.7003 48.5977C39.831 48.467 39.9062 48.2854 39.9062 48.1006C39.9062 47.9157 39.831 47.7342 39.7003 47.6035C39.5695 47.4727 39.388 47.3975 39.2031 47.3975Z" fill="#383838"/>
<path d="M34.7031 47.3975C34.5183 47.3975 34.3367 47.4727 34.206 47.6035C34.0753 47.7345 34 47.9157 34 48.1006C34 48.2863 34.0753 48.467 34.206 48.5977C34.3367 48.7285 34.5175 48.8037 34.7031 48.8037C34.888 48.8037 35.0695 48.7285 35.2003 48.5977C35.331 48.467 35.4062 48.2863 35.4062 48.1006C35.4062 47.9157 35.331 47.7342 35.2003 47.6035C35.0695 47.4727 34.888 47.3975 34.7031 47.3975Z" fill="#383838"/>
<path d="M52.7031 48.8037C52.888 48.8037 53.0695 48.729 53.2003 48.5977C53.331 48.467 53.4062 48.2863 53.4062 48.1006C53.4062 47.9157 53.331 47.7342 53.2003 47.6035C53.0695 47.4727 52.888 47.3975 52.7031 47.3975C52.5183 47.3975 52.3367 47.4727 52.206 47.6035C52.0753 47.7345 52 47.9157 52 48.1006C52 48.2863 52.0753 48.467 52.206 48.5977C52.3367 48.7293 52.5183 48.8037 52.7031 48.8037Z" fill="#383838"/>
<path d="M43.7031 47.3975C43.5183 47.3975 43.3367 47.4727 43.206 47.6035C43.0753 47.7345 43 47.9157 43 48.1006C43 48.2854 43.0753 48.467 43.206 48.5977C43.3367 48.729 43.5183 48.8037 43.7031 48.8037C43.888 48.8037 44.0695 48.729 44.2003 48.5977C44.331 48.467 44.4062 48.2863 44.4062 48.1006C44.4062 47.9157 44.331 47.7342 44.2003 47.6035C44.0695 47.4727 43.888 47.3975 43.7031 47.3975Z" fill="#383838"/>
<path d="M48.2031 47.3975C48.0183 47.3975 47.8367 47.4727 47.706 47.6035C47.5753 47.7345 47.5 47.9157 47.5 48.1006C47.5 48.2854 47.5753 48.467 47.706 48.5977C47.8367 48.729 48.0183 48.8037 48.2031 48.8037C48.388 48.8037 48.5695 48.729 48.7003 48.5977C48.831 48.467 48.9062 48.2854 48.9062 48.1006C48.9062 47.9157 48.831 47.7342 48.7003 47.6035C48.5695 47.4727 48.388 47.3975 48.2031 47.3975Z" fill="#383838"/>
<path d="M45.3132 54.6396C45.4983 54.6396 45.6796 54.5649 45.8103 54.4337C45.941 54.3029 46.0163 54.1222 46.0163 53.9365C46.0163 53.7517 45.941 53.5701 45.8103 53.4394C45.6796 53.3087 45.4988 53.2334 45.3132 53.2334C45.1283 53.2334 44.9468 53.3087 44.816 53.4394C44.6853 53.5701 44.61 53.7517 44.61 53.9365C44.61 54.1222 44.6853 54.3029 44.816 54.4337C44.9468 54.5652 45.1283 54.6396 45.3132 54.6396Z" fill="#383838"/>
</g>
<defs>
<clipPath id="clip0_217_5">
<rect width="36" height="36" fill="white" transform="translate(25 25)"/>
</clipPath>
</defs>
</svg>
