<svg width="85" height="85" viewBox="0 0 85 85" fill="none" xmlns="http://www.w3.org/2000/svg">
<circle cx="42.5" cy="42.5" r="42" fill="white" stroke="#FDF6B7"/>
<circle cx="42.5" cy="42.5" r="34.5" fill="#FDF6B7"/>
<g clip-path="url(#clip0_217_6)">
<path d="M35.9687 51.0159C35.5806 51.0159 35.2656 51.3309 35.2656 51.719C35.2656 52.1071 35.5806 52.4221 35.9687 52.4221C36.3568 52.4221 36.6718 52.1071 36.6718 51.719C36.6718 51.3309 36.3568 51.0159 35.9687 51.0159Z" fill="#383838"/>
<path d="M56.6505 38.3603L60.7939 34.2168C60.9682 34.0425 61.0385 33.7897 60.9792 33.5505C60.9199 33.3112 60.7396 33.1205 60.5041 33.0478L50.4142 29.9337C49.5047 27.01 46.8013 25.001 43.7028 25.001C40.8226 25.001 38.2466 26.7563 37.1804 29.4043L25.4935 33.0485C25.2586 33.1217 25.079 33.3125 25.0202 33.5515C24.9613 33.7905 25.0316 34.0429 25.2057 34.2169L29.4581 38.4693L26.7761 42.9395C26.6663 43.1223 26.6456 43.3452 26.7196 43.5452C26.7935 43.7452 26.9543 43.9008 27.1567 43.9683L31.0466 45.2648V56.079C31.0466 56.3721 31.2284 56.6344 31.5029 56.7374C33.8813 57.6292 42.7185 60.9436 42.766 60.9604C42.9055 61.0095 43.0626 61.0162 43.2159 60.9667C43.2179 60.966 43.22 60.9655 43.222 60.9648L55.8783 56.7461C56.1654 56.6504 56.3591 56.3817 56.3591 56.079V44.9753L60.5074 43.6717C60.742 43.598 60.921 43.4072 60.9795 43.1684C61.038 42.9296 60.9677 42.6776 60.7938 42.5037L56.6505 38.3603ZM50.7341 32.0322C50.7341 31.8536 50.7266 31.6753 50.7131 31.4976L58.9744 34.0475L55.4661 37.5558L49.7336 35.6452C50.3827 34.5602 50.7341 33.3083 50.7341 32.0322ZM38.3821 30.2021C39.1626 27.9323 41.3009 26.4072 43.7028 26.4072C46.2904 26.4072 48.5346 28.1574 49.1604 30.6634C49.2715 31.1087 49.3278 31.5692 49.3278 32.0322C49.3278 33.3382 48.8944 34.5623 48.0743 35.5726C47.0001 36.8974 45.4068 37.6572 43.7028 37.6572C41.8609 37.6572 40.1333 36.7531 39.081 35.2382C38.4248 34.2956 38.0778 33.1869 38.0778 32.0322C38.0778 31.4043 38.1801 30.7885 38.3821 30.2021ZM27.0223 34.0448L36.7465 31.0126C36.6977 31.3486 36.6716 31.6889 36.6716 32.0322C36.6716 33.1643 36.9398 34.2608 37.4509 35.2501L30.5334 37.5558L27.0223 34.0448ZM28.4329 42.9113L30.6562 39.2057L41.9458 42.9689L39.7226 46.6745C38.5171 46.2727 29.7201 43.3403 28.4329 42.9113ZM42.2966 59.2832L32.4528 55.5918V45.7336C40.1978 48.3016 39.8196 48.2232 40.0352 48.2232C40.2769 48.2232 40.5084 48.0981 40.6383 47.8817L42.2966 45.1177V59.2832ZM42.9997 41.8379L32.567 38.3604L38.2479 36.4669C39.5775 38.1015 41.5791 39.0635 43.7028 39.0635C45.6675 39.0635 47.514 38.255 48.8421 36.8304L53.4324 38.3604L42.9997 41.8379ZM54.9528 55.5723L43.7028 59.3223V44.5834L46.1955 47.6989C46.3768 47.9255 46.6787 48.0173 46.9554 47.9304L54.9528 45.4173V55.5723ZM46.9929 46.4447L44.1787 42.9272L55.4661 39.1648L58.9791 42.6779L46.9929 46.4447Z" fill="#383838"/>
<path d="M40.4343 52.5764L38.8706 51.99C38.507 51.8537 38.1017 52.0379 37.9653 52.4015C37.829 52.7651 38.0132 53.1704 38.3768 53.3067L39.9405 53.8931C40.3049 54.0297 40.7097 53.8446 40.8458 53.4817C40.9821 53.1181 40.7979 52.7127 40.4343 52.5764Z" fill="#383838"/>
<path d="M40.4343 55.5801L36.2156 53.9981C35.852 53.8617 35.4467 54.046 35.3103 54.4095C35.1739 54.7731 35.3582 55.1785 35.7218 55.3148L39.9405 56.8968C40.0219 56.9274 40.1053 56.9418 40.1873 56.9418C40.472 56.9418 40.7399 56.7677 40.8458 56.4854C40.9822 56.1217 40.798 55.7164 40.4343 55.5801Z" fill="#383838"/>
<path d="M47.7159 29.4247C47.4413 29.1501 46.9961 29.1501 46.7215 29.4247L42.9999 33.1463L42.0908 32.2373C41.8163 31.9627 41.371 31.9627 41.0964 32.2373C40.8218 32.5118 40.8218 32.9571 41.0964 33.2317L42.5027 34.6379C42.7773 34.9125 43.2225 34.9125 43.4971 34.6379L47.7159 30.4191C47.9905 30.1446 47.9905 29.6993 47.7159 29.4247Z" fill="#383838"/>
</g>
<defs>
<clipPath id="clip0_217_6">
<rect width="36" height="36" fill="white" transform="translate(25 25)"/>
</clipPath>
</defs>
</svg>
