<svg width="13" height="15" viewBox="0 0 13 15" fill="none" xmlns="http://www.w3.org/2000/svg">
<path d="M6.5 8.10938C7.89399 8.10938 9.02404 6.97932 9.02404 5.58533C9.02404 4.19133 7.89399 3.06128 6.5 3.06128C5.10601 3.06128 3.97595 4.19133 3.97595 5.58533C3.97595 6.97932 5.10601 8.10938 6.5 8.10938Z" fill="#6FC048"/>
<path d="M6.5 15C6.5 15 12.0856 8.67055 12.0856 5.5857C12.0856 2.50081 9.58488 0 6.5 0C3.41512 0 0.914307 2.50081 0.914307 5.58567C0.914307 8.67052 6.5 15 6.5 15ZM6.5 1.72891C8.62972 1.72891 10.3565 3.45539 10.3565 5.58541C10.3565 7.71544 8.62972 9.44189 6.5 9.44189C4.37026 9.44189 2.64353 7.71541 2.64353 5.58541C2.64353 3.45542 4.37026 1.72891 6.5 1.72891Z" fill="#6FC048"/>
</svg>
