<svg width="111" height="23" viewBox="0 0 111 23" fill="none" xmlns="http://www.w3.org/2000/svg">
<path d="M100.229 11.2842L95.5741 6.62947L96.9038 5.2998L102.888 11.2842L96.9038 17.2687L95.5741 15.939L100.229 11.2842Z" fill="#FFDD74"/>
<path d="M82.6606 11.2842L78.0059 6.62947L79.3355 5.2998L85.32 11.2842L79.3355 17.2687L78.0059 15.939L82.6606 11.2842Z" fill="#6FC048"/>
<path d="M65.0921 11.2842L60.4373 6.62947L61.767 5.2998L67.7514 11.2842L61.767 17.2687L60.4373 15.939L65.0921 11.2842Z" fill="#FFDD74"/>
<path d="M47.5235 11.2842L42.8687 6.62947L44.1984 5.2998L50.1828 11.2842L44.1984 17.2687L42.8687 15.939L47.5235 11.2842Z" fill="#6FC048"/>
<path d="M29.9549 11.2842L25.3002 6.62947L26.6298 5.2998L32.6143 11.2842L26.6298 17.2687L25.3002 15.939L29.9549 11.2842Z" fill="#FFDD74"/>
<path d="M12.3864 11.2842L7.73163 6.62947L9.06129 5.2998L15.0457 11.2842L9.06129 17.2687L7.73163 15.939L12.3864 11.2842Z" fill="#6FC048"/>
</svg>
