<svg width="30" height="30" viewBox="0 0 30 30" fill="none" xmlns="http://www.w3.org/2000/svg">
<path d="M26.603 10.7309H25.8826V7.25505C25.8826 7.23338 25.8792 7.21155 25.8766 7.18939C25.8755 7.05151 25.8313 6.91598 25.7368 6.80857L19.9524 0.201189C19.9506 0.199493 19.9489 0.198891 19.9477 0.197085C19.9133 0.158565 19.8731 0.126502 19.8305 0.0988161C19.8179 0.09039 19.8053 0.0833317 19.7921 0.0758904C19.7553 0.0559192 19.7162 0.0391216 19.676 0.0270294C19.6651 0.0241842 19.6553 0.0196976 19.6444 0.0168524C19.6007 0.00645643 19.5554 0 19.5095 0H5.29411C4.64502 0 4.11767 0.52795 4.11767 1.17649V10.7305H3.3974C2.46882 10.7305 1.71588 11.4832 1.71588 12.4121V21.1563C1.71588 22.0843 2.46882 22.8377 3.3974 22.8377H4.11767V28.8236C4.11767 29.4722 4.64502 30 5.29411 30H24.7058C25.3544 30 25.8823 29.4722 25.8823 28.8236V22.8378H26.6027C27.531 22.8378 28.284 22.0847 28.284 21.1563V12.4124C28.2841 11.4832 27.5315 10.7309 26.603 10.7309ZM5.29411 1.17649H18.9212V7.19552C18.9212 7.52053 19.1848 7.78377 19.5095 7.78377H24.7059V10.7308H5.29411V1.17649ZM17.2122 17.2168C16.0564 16.8142 15.3022 16.1748 15.3022 15.1626C15.3022 13.9754 16.2931 13.0671 17.9349 13.0671C18.719 13.0671 19.2974 13.2321 19.7099 13.418L19.3592 14.6874C19.0806 14.5536 18.5852 14.3571 17.9038 14.3571C17.2225 14.3571 16.8923 14.6669 16.8923 15.0283C16.8923 15.4723 17.2846 15.6682 18.1824 16.0088C19.4106 16.4632 19.9888 17.1031 19.9888 18.0837C19.9888 19.2504 19.0906 20.2414 17.1809 20.2414C16.3862 20.2414 15.6017 20.0352 15.2094 19.8181L15.5291 18.5175C15.9525 18.734 16.603 18.9512 17.2737 18.9512C17.997 18.9512 18.3783 18.6519 18.3783 18.1975C18.3786 17.7643 18.0483 17.5161 17.2122 17.2168ZM14.5498 18.8167V20.1384H10.2032V13.18H11.7833V18.8167H14.5498ZM5.15623 20.1384H3.36014L5.37301 16.6173L3.43209 13.1797H5.23885L5.84756 14.4496C6.05405 14.8729 6.20901 15.2131 6.37436 15.6061H6.39444C6.56006 15.162 6.69411 14.8524 6.86909 14.4496L7.45761 13.1797H9.25376L7.29232 16.5757L9.35728 20.1378H7.54062L6.91057 18.8781C6.65291 18.3936 6.48762 18.032 6.29141 17.6293H6.27089C6.12617 18.032 5.95108 18.3936 5.73408 18.8781L5.15623 20.1384ZM24.7059 28.505H5.29411V22.8378H24.7058V28.505H24.7059ZM24.7165 20.1384L24.0866 18.8788C23.8286 18.3938 23.6635 18.0326 23.4673 17.6299H23.4473C23.3025 18.0326 23.1268 18.3938 22.9096 18.8788L22.3323 20.1384H20.5357L22.5485 16.6173L20.6077 13.1797H22.4144L23.0239 14.4496C23.2302 14.8729 23.3846 15.2131 23.5501 15.6061H23.5708C23.7356 15.162 23.8695 14.8524 24.0452 14.4496L24.6335 13.1797H26.4301L24.4686 16.5757L26.5332 20.1378H24.7165V20.1384Z" fill="#6FC048"/>
</svg>
