<svg width="161" height="75" viewBox="0 0 161 75" fill="none" xmlns="http://www.w3.org/2000/svg">
<path d="M70.2185 19.3164L67.9484 21.2456L95 44.2443V42.3151V40.384L70.2185 19.3164Z" fill="#FFDD74"/>
<path d="M63.4271 25.0908L95 51.9344V50.0033V48.0722L65.6973 23.1597L63.4271 25.0908Z" fill="#FFDD74"/>
<path d="M58.9039 28.9355L95 59.6221V57.691V55.7599L61.176 27.0044L58.9039 28.9355Z" fill="#FFDD74"/>
<path d="M54.3827 32.7788L95 67.3103V65.3792V63.4501L56.6547 30.8496L54.3827 32.7788Z" fill="#FFDD74"/>
<path d="M47.5 0L0 40.3842V42.3153V44.2444L47.5 3.86217L65.587 19.238L67.8571 17.307L47.5 0Z" fill="#CAEEB9"/>
<path d="M47.5 7.68799L0 48.0722V50.0032V51.9343L47.5 11.5502L61.0638 23.083L63.3359 21.1519L47.5 7.68799Z" fill="#CAEEB9"/>
<path d="M47.5 15.3779L0 55.7602V57.6913V59.6224L47.5 19.2382L56.5426 26.928L58.8146 24.9969L47.5 15.3779Z" fill="#CAEEB9"/>
<path d="M47.5 23.0659L0 63.4501V65.3793V67.3104L47.5 26.9281L52.0213 30.7711L54.2914 28.84L47.5 23.0659Z" fill="#CAEEB9"/>
<path d="M47.5 30.7539L0 71.1381V73.0692V75.0002L47.5 34.6161L49.7701 32.685L47.5 30.7539Z" fill="#CAEEB9"/>
<path d="M49.8615 36.6235L95.0001 74.9999V73.0688V71.1378L52.1316 34.6924L49.8615 36.6235Z" fill="#FFDD74"/>
<path d="M22.22 34.8001H31.56V51.0001H28.64V36.9001H25.14V51.0001H22.22V34.8001Z" fill="#262626"/>
<path d="M33.9973 34.8001H38.7573C41.5173 34.8001 42.8973 36.3334 42.8973 39.4001C42.8973 42.3334 41.4506 43.8001 38.5573 43.8001H36.9373V51.0001H33.9973V34.8001ZM38.0773 41.7201C38.8773 41.7201 39.4173 41.5534 39.6973 41.2201C39.9773 40.8734 40.1173 40.2601 40.1173 39.3801C40.1173 38.7401 40.0707 38.2534 39.9773 37.9201C39.884 37.5734 39.6906 37.3134 39.3973 37.1401C39.1173 36.9668 38.6773 36.8801 38.0773 36.8801H36.9373V41.7201H38.0773Z" fill="#262626"/>
<path d="M48.9642 51.2201C47.2842 51.2201 46.0842 50.7734 45.3642 49.8801C44.6442 48.9734 44.2842 47.6534 44.2842 45.9201V39.8401C44.2842 38.1201 44.6442 36.8201 45.3642 35.9401C46.0842 35.0601 47.2842 34.6201 48.9642 34.6201C50.6309 34.6201 51.8242 35.0601 52.5442 35.9401C53.2642 36.8201 53.6242 38.1201 53.6242 39.8401V45.9201C53.6242 47.6401 53.2575 48.9534 52.5242 49.8601C51.8042 50.7668 50.6175 51.2201 48.9642 51.2201ZM48.9642 49.0401C49.6175 49.0401 50.0575 48.8334 50.2842 48.4201C50.5109 48.0068 50.6242 47.4068 50.6242 46.6201V39.1601C50.6242 38.3734 50.5109 37.7801 50.2842 37.3801C50.0709 36.9801 49.6309 36.7801 48.9642 36.7801C48.2975 36.7801 47.8509 36.9868 47.6242 37.4001C47.3975 37.8001 47.2842 38.3868 47.2842 39.1601V46.6201C47.2842 47.4068 47.3975 48.0068 47.6242 48.4201C47.8509 48.8334 48.2975 49.0401 48.9642 49.0401Z" fill="#262626"/>
<path d="M60.4137 49.0801C59.8537 49.1201 59.5271 49.1401 59.4337 49.1401C58.2071 49.1401 57.2471 48.8068 56.5537 48.1401C55.8737 47.4601 55.5337 46.4201 55.5337 45.0201V40.5401C55.5337 39.1934 55.8804 38.1668 56.5737 37.4601C57.2804 36.7534 58.2471 36.4001 59.4737 36.4001C59.7804 36.4001 60.0937 36.4134 60.4137 36.4401V33.6001H62.9937V36.4401C63.3137 36.4134 63.6137 36.4001 63.8937 36.4001C65.1471 36.4001 66.1204 36.7534 66.8137 37.4601C67.5204 38.1668 67.8737 39.1934 67.8737 40.5401V45.0201C67.8737 46.4068 67.5471 47.4401 66.8937 48.1201C66.2404 48.8001 65.3804 49.1401 64.3137 49.1401C63.8737 49.1401 63.4337 49.1201 62.9937 49.0801V51.6401H60.4137V49.0801ZM59.9337 47.3401C60.0937 47.3401 60.2537 47.3268 60.4137 47.3001V38.2001C60.1737 38.1734 59.9804 38.1601 59.8337 38.1601C59.2471 38.1601 58.8204 38.3468 58.5537 38.7201C58.3004 39.0801 58.1737 39.6801 58.1737 40.5201V45.0401C58.1737 45.8934 58.2937 46.4934 58.5337 46.8401C58.7737 47.1734 59.2404 47.3401 59.9337 47.3401ZM63.5537 47.3401C64.1937 47.3401 64.6337 47.1734 64.8737 46.8401C65.1271 46.4934 65.2537 45.9001 65.2537 45.0601V40.5201C65.2537 39.6534 65.1337 39.0468 64.8937 38.7001C64.6537 38.3401 64.2271 38.1601 63.6137 38.1601C63.4404 38.1601 63.2337 38.1734 62.9937 38.2001V47.3001C63.1804 47.3268 63.3671 47.3401 63.5537 47.3401Z" fill="#262626"/>
<path d="M70.092 34.8001H72.512V45.0201L76.952 34.8001H78.932V51.0001H76.472V40.6001L72.032 51.0001H70.092V34.8001Z" fill="#262626"/>
<path d="M80.2992 48.8801C80.9792 48.8934 81.4659 48.7868 81.7592 48.5601C82.0659 48.3201 82.2992 47.7868 82.4592 46.9601C82.6192 46.1334 82.7725 44.7134 82.9192 42.7001L83.4392 34.8001H91.3192V51.0001H88.3792V37.0201H86.0392L85.6992 43.0601C85.5659 45.2201 85.3859 46.8268 85.1592 47.8801C84.9325 48.9201 84.5059 49.7068 83.8792 50.2401C83.2659 50.7601 82.3125 51.0201 81.0192 51.0201C80.7125 51.0201 80.4725 51.0134 80.2992 51.0001V48.8801Z" fill="#262626"/>
<path d="M93.8615 34.8001H96.8015V41.6001H97.5215C99.2015 41.6001 100.448 41.9601 101.262 42.6801C102.088 43.4001 102.502 44.6068 102.502 46.3001C102.502 48.0334 102.075 49.2534 101.222 49.9601C100.368 50.6534 99.0949 51.0001 97.4015 51.0001H93.8615V34.8001ZM97.4015 49.0001C98.2549 49.0001 98.8615 48.8068 99.2215 48.4201C99.5815 48.0334 99.7615 47.3334 99.7615 46.3201C99.7615 45.4134 99.5882 44.7468 99.2415 44.3201C98.8949 43.8801 98.2682 43.6601 97.3615 43.6601H96.8015V49.0001H97.4015Z" fill="#262626"/>
<path d="M118.132 51.0001H109.252V34.8001H112.192V48.9801H115.832V34.8001H118.772V48.9801H120.652V54.2201H118.452L118.132 51.0001Z" fill="#262626"/>
<path d="M122.318 34.8001H129.118V36.8801H125.258V41.5401H128.298V43.6001H125.258V48.9801H129.158V51.0001H122.318V34.8001Z" fill="#262626"/>
<path d="M130.912 34.8001H133.852V41.5601H137.152V34.8001H140.112V51.0001H137.152V43.6801H133.852V51.0001H130.912V34.8001Z" fill="#262626"/>
<path d="M144.211 36.9801H141.631V34.8001H149.691V36.9801H147.171V51.0001H144.211V36.9801Z" fill="#262626"/>
<path d="M151.165 34.8001H155.925C158.685 34.8001 160.065 36.3334 160.065 39.4001C160.065 42.3334 158.619 43.8001 155.725 43.8001H154.105V51.0001H151.165V34.8001ZM155.245 41.7201C156.045 41.7201 156.585 41.5534 156.865 41.2201C157.145 40.8734 157.285 40.2601 157.285 39.3801C157.285 38.7401 157.239 38.2534 157.145 37.9201C157.052 37.5734 156.859 37.3134 156.565 37.1401C156.285 36.9668 155.845 36.8801 155.245 36.8801H154.105V41.7201H155.245Z" fill="#262626"/>
</svg>
