<svg width="111" height="23" viewBox="0 0 111 23" fill="none" xmlns="http://www.w3.org/2000/svg">
<path d="M10.1823 11.2842L14.837 6.62947L13.5074 5.2998L7.52294 11.2842L13.5074 17.2687L14.837 15.939L10.1823 11.2842Z" fill="#FFDD74"/>
<path d="M27.7505 11.2842L32.4053 6.62947L31.0756 5.2998L25.0912 11.2842L31.0756 17.2687L32.4053 15.939L27.7505 11.2842Z" fill="#6FC048"/>
<path d="M45.3191 11.2842L49.9739 6.62947L48.6442 5.2998L42.6598 11.2842L48.6442 17.2687L49.9739 15.939L45.3191 11.2842Z" fill="#FFDD74"/>
<path d="M62.8876 11.2842L67.5424 6.62947L66.2127 5.2998L60.2283 11.2842L66.2127 17.2687L67.5424 15.939L62.8876 11.2842Z" fill="#6FC048"/>
<path d="M80.4562 11.2842L85.111 6.62947L83.7813 5.2998L77.7969 11.2842L83.7813 17.2687L85.111 15.939L80.4562 11.2842Z" fill="#FFDD74"/>
<path d="M98.0247 11.2842L102.679 6.62947L101.35 5.2998L95.3653 11.2842L101.35 17.2687L102.679 15.939L98.0247 11.2842Z" fill="#6FC048"/>
</svg>
